{
	"asset":{
		"generator":"Khronos glTF Blender I/O v4.2.83",
		"version":"2.0"
	},
	"scene":0,
	"scenes":[
		{
			"name":"Scene",
			"nodes":[
				7
			]
		}
	],
	"nodes":[
		{
			"name":"Bone.005",
			"rotation":[
				0,
				7.105427357601002e-15,
				0,
				1
			],
			"translation":[
				0,
				1.9872255325317383,
				0
			]
		},
		{
			"children":[
				0
			],
			"name":"Bone.004",
			"rotation":[
				0,
				7.105427357601002e-15,
				0,
				1
			],
			"translation":[
				0,
				1.9727206230163574,
				0
			]
		},
		{
			"children":[
				1
			],
			"name":"Bone.003",
			"rotation":[
				0,
				1.1920927533992653e-07,
				0,
				1
			],
			"scale":[
				1,
				0.9999999403953552,
				1
			],
			"translation":[
				0,
				2.016235828399658,
				0
			]
		},
		{
			"children":[
				2
			],
			"name":"Bone.002",
			"translation":[
				0,
				2.001730442047119,
				0
			]
		},
		{
			"children":[
				3
			],
			"name":"Bone.001",
			"translation":[
				0,
				2.0153703689575195,
				0
			]
		},
		{
			"children":[
				4
			],
			"name":"Bone"
		},
		{
			"mesh":0,
			"name":"Cube",
			"skin":0
		},
		{
			"children":[
				6,
				5
			],
			"name":"Armature"
		}
	],
	"animations":[
		{
			"channels":[
				{
					"sampler":0,
					"target":{
						"node":5,
						"path":"translation"
					}
				},
				{
					"sampler":1,
					"target":{
						"node":5,
						"path":"rotation"
					}
				},
				{
					"sampler":2,
					"target":{
						"node":5,
						"path":"scale"
					}
				},
				{
					"sampler":3,
					"target":{
						"node":4,
						"path":"translation"
					}
				},
				{
					"sampler":4,
					"target":{
						"node":4,
						"path":"rotation"
					}
				},
				{
					"sampler":5,
					"target":{
						"node":4,
						"path":"scale"
					}
				},
				{
					"sampler":6,
					"target":{
						"node":3,
						"path":"translation"
					}
				},
				{
					"sampler":7,
					"target":{
						"node":3,
						"path":"rotation"
					}
				},
				{
					"sampler":8,
					"target":{
						"node":3,
						"path":"scale"
					}
				},
				{
					"sampler":9,
					"target":{
						"node":2,
						"path":"translation"
					}
				},
				{
					"sampler":10,
					"target":{
						"node":2,
						"path":"rotation"
					}
				},
				{
					"sampler":11,
					"target":{
						"node":2,
						"path":"scale"
					}
				},
				{
					"sampler":12,
					"target":{
						"node":1,
						"path":"translation"
					}
				},
				{
					"sampler":13,
					"target":{
						"node":1,
						"path":"rotation"
					}
				},
				{
					"sampler":14,
					"target":{
						"node":1,
						"path":"scale"
					}
				},
				{
					"sampler":15,
					"target":{
						"node":0,
						"path":"translation"
					}
				},
				{
					"sampler":16,
					"target":{
						"node":0,
						"path":"rotation"
					}
				},
				{
					"sampler":17,
					"target":{
						"node":0,
						"path":"scale"
					}
				}
			],
			"name":"Action",
			"samplers":[
				{
					"input":7,
					"interpolation":"STEP",
					"output":8
				},
				{
					"input":7,
					"interpolation":"STEP",
					"output":9
				},
				{
					"input":7,
					"interpolation":"STEP",
					"output":10
				},
				{
					"input":7,
					"interpolation":"STEP",
					"output":11
				},
				{
					"input":12,
					"interpolation":"LINEAR",
					"output":13
				},
				{
					"input":7,
					"interpolation":"STEP",
					"output":14
				},
				{
					"input":7,
					"interpolation":"STEP",
					"output":15
				},
				{
					"input":12,
					"interpolation":"LINEAR",
					"output":16
				},
				{
					"input":7,
					"interpolation":"STEP",
					"output":17
				},
				{
					"input":7,
					"interpolation":"STEP",
					"output":18
				},
				{
					"input":12,
					"interpolation":"LINEAR",
					"output":19
				},
				{
					"input":7,
					"interpolation":"STEP",
					"output":20
				},
				{
					"input":7,
					"interpolation":"LINEAR",
					"output":21
				},
				{
					"input":12,
					"interpolation":"LINEAR",
					"output":22
				},
				{
					"input":7,
					"interpolation":"STEP",
					"output":23
				},
				{
					"input":7,
					"interpolation":"LINEAR",
					"output":24
				},
				{
					"input":12,
					"interpolation":"LINEAR",
					"output":25
				},
				{
					"input":7,
					"interpolation":"STEP",
					"output":26
				}
			]
		}
	],
	"materials":[
		{
			"doubleSided":true,
			"name":"Material",
			"pbrMetallicRoughness":{
				"baseColorTexture":{
					"index":0
				},
				"metallicFactor":0,
				"roughnessFactor":0.5
			}
		}
	],
	"meshes":[
		{
			"name":"Cube",
			"primitives":[
				{
					"attributes":{
						"POSITION":0,
						"NORMAL":1,
						"TEXCOORD_0":2,
						"JOINTS_0":3,
						"WEIGHTS_0":4
					},
					"indices":5,
					"material":0
				}
			]
		}
	],
	"textures":[
		{
			"sampler":0,
			"source":0
		}
	],
	"images":[
		{
			"mimeType":"image/png",
			"name":"Untitled",
			"uri":"Texture/Untitled.png"
		}
	],
	"skins":[
		{
			"inverseBindMatrices":6,
			"joints":[
				5,
				4,
				3,
				2,
				1,
				0
			],
			"name":"Armature"
		}
	],
	"accessors":[
		{
			"bufferView":0,
			"componentType":5126,
			"count":72,
			"max":[
				1,
				12.04615306854248,
				1.000000238418579
			],
			"min":[
				-1.0326615571975708,
				0.019042015075683594,
				-1
			],
			"type":"VEC3"
		},
		{
			"bufferView":1,
			"componentType":5126,
			"count":72,
			"type":"VEC3"
		},
		{
			"bufferView":2,
			"componentType":5126,
			"count":72,
			"type":"VEC2"
		},
		{
			"bufferView":3,
			"componentType":5121,
			"count":72,
			"type":"VEC4"
		},
		{
			"bufferView":4,
			"componentType":5126,
			"count":72,
			"type":"VEC4"
		},
		{
			"bufferView":5,
			"componentType":5123,
			"count":156,
			"type":"SCALAR"
		},
		{
			"bufferView":6,
			"componentType":5126,
			"count":6,
			"type":"MAT4"
		},
		{
			"bufferView":7,
			"componentType":5126,
			"count":2,
			"max":[
				13.291666666666666
			],
			"min":[
				0.041666666666666664
			],
			"type":"SCALAR"
		},
		{
			"bufferView":8,
			"componentType":5126,
			"count":2,
			"type":"VEC3"
		},
		{
			"bufferView":9,
			"componentType":5126,
			"count":2,
			"type":"VEC4"
		},
		{
			"bufferView":10,
			"componentType":5126,
			"count":2,
			"type":"VEC3"
		},
		{
			"bufferView":11,
			"componentType":5126,
			"count":2,
			"type":"VEC3"
		},
		{
			"bufferView":12,
			"componentType":5126,
			"count":319,
			"max":[
				13.291666666666666
			],
			"min":[
				0.041666666666666664
			],
			"type":"SCALAR"
		},
		{
			"bufferView":13,
			"componentType":5126,
			"count":319,
			"type":"VEC4"
		},
		{
			"bufferView":14,
			"componentType":5126,
			"count":2,
			"type":"VEC3"
		},
		{
			"bufferView":15,
			"componentType":5126,
			"count":2,
			"type":"VEC3"
		},
		{
			"bufferView":16,
			"componentType":5126,
			"count":319,
			"type":"VEC4"
		},
		{
			"bufferView":17,
			"componentType":5126,
			"count":2,
			"type":"VEC3"
		},
		{
			"bufferView":18,
			"componentType":5126,
			"count":2,
			"type":"VEC3"
		},
		{
			"bufferView":19,
			"componentType":5126,
			"count":319,
			"type":"VEC4"
		},
		{
			"bufferView":20,
			"componentType":5126,
			"count":2,
			"type":"VEC3"
		},
		{
			"bufferView":21,
			"componentType":5126,
			"count":2,
			"type":"VEC3"
		},
		{
			"bufferView":22,
			"componentType":5126,
			"count":319,
			"type":"VEC4"
		},
		{
			"bufferView":23,
			"componentType":5126,
			"count":2,
			"type":"VEC3"
		},
		{
			"bufferView":24,
			"componentType":5126,
			"count":2,
			"type":"VEC3"
		},
		{
			"bufferView":25,
			"componentType":5126,
			"count":319,
			"type":"VEC4"
		},
		{
			"bufferView":26,
			"componentType":5126,
			"count":2,
			"type":"VEC3"
		}
	],
	"bufferViews":[
		{
			"buffer":0,
			"byteLength":864,
			"byteOffset":0,
			"target":34962
		},
		{
			"buffer":0,
			"byteLength":864,
			"byteOffset":864,
			"target":34962
		},
		{
			"buffer":0,
			"byteLength":576,
			"byteOffset":1728,
			"target":34962
		},
		{
			"buffer":0,
			"byteLength":288,
			"byteOffset":2304,
			"target":34962
		},
		{
			"buffer":0,
			"byteLength":1152,
			"byteOffset":2592,
			"target":34962
		},
		{
			"buffer":0,
			"byteLength":312,
			"byteOffset":3744,
			"target":34963
		},
		{
			"buffer":0,
			"byteLength":384,
			"byteOffset":4056
		},
		{
			"buffer":0,
			"byteLength":8,
			"byteOffset":4440
		},
		{
			"buffer":0,
			"byteLength":24,
			"byteOffset":4448
		},
		{
			"buffer":0,
			"byteLength":32,
			"byteOffset":4472
		},
		{
			"buffer":0,
			"byteLength":24,
			"byteOffset":4504
		},
		{
			"buffer":0,
			"byteLength":24,
			"byteOffset":4528
		},
		{
			"buffer":0,
			"byteLength":1276,
			"byteOffset":4552
		},
		{
			"buffer":0,
			"byteLength":5104,
			"byteOffset":5828
		},
		{
			"buffer":0,
			"byteLength":24,
			"byteOffset":10932
		},
		{
			"buffer":0,
			"byteLength":24,
			"byteOffset":10956
		},
		{
			"buffer":0,
			"byteLength":5104,
			"byteOffset":10980
		},
		{
			"buffer":0,
			"byteLength":24,
			"byteOffset":16084
		},
		{
			"buffer":0,
			"byteLength":24,
			"byteOffset":16108
		},
		{
			"buffer":0,
			"byteLength":5104,
			"byteOffset":16132
		},
		{
			"buffer":0,
			"byteLength":24,
			"byteOffset":21236
		},
		{
			"buffer":0,
			"byteLength":24,
			"byteOffset":21260
		},
		{
			"buffer":0,
			"byteLength":5104,
			"byteOffset":21284
		},
		{
			"buffer":0,
			"byteLength":24,
			"byteOffset":26388
		},
		{
			"buffer":0,
			"byteLength":24,
			"byteOffset":26412
		},
		{
			"buffer":0,
			"byteLength":5104,
			"byteOffset":26436
		},
		{
			"buffer":0,
			"byteLength":24,
			"byteOffset":31540
		}
	],
	"samplers":[
		{
			"magFilter":9729,
			"minFilter":9987
		}
	],
	"buffers":[
		{
			"byteLength":31564,
			"uri":"TestPlayer.bin"
		}
	]
}
